
        <svg xmlns="http://www.w3.org/2000/svg" xmlns:xlink="http://www.w3.org/1999/xlink" version="1.1" width="3152.2283185883407" 
        height="487.5713436256985" viewBox="0 0 3152.2283185883407 487.5713436256985">
			
			<g transform="scale(7.611415929417035) translate(10, 10)">
				<defs id="SvgjsDefs5224"></defs><g id="SvgjsG5225" featureKey="nameLeftFeature-0" transform="matrix(1.519908757647551,0,0,1.519908757647551,-1.8328365205967858,2.366921416467431)" fill="#d72323"><path d="M5.06 20.32 c-1.66 0 -4.06 -0.76 -3.84 -1.6 l0.18 -0.7 c0.54 -1.94 1.14 0.98 4.44 0.98 c1.74 0 2.72 -0.84 2.72 -2.1 c0 -1.04 -0.76 -1.5 -2.04 -2.26 l-2.24 -1.36 c-2.04 -1.24 -2.84 -2.12 -2.84 -3.5 c0 -2.38 2.28 -4.1 4.82 -4.1 c1.54 0 3.42 0.64 3.22 1.32 l-0.24 0.74 c-0.56 1.8 -1.08 -0.76 -3.82 -0.76 c-1.54 0 -2.32 0.8 -2.32 1.88 c0 0.88 0.54 1.4 1.88 2.22 l2.34 1.4 c2.04 1.22 2.86 2.14 2.86 3.52 c0 2.44 -2.44 4.32 -5.12 4.32 z M14.5705 20 c-0.18 0 -0.3 -0.58 -0.14 -0.6 c1.36 -0.16 2.28 -0.46 2.28 -1.54 l0 -10.02 c0 -0.48 -0.16 -0.64 -0.64 -0.64 l-0.64 0 c-2.02 0 -2.92 0.34 -3.38 1.3 c-0.18 0.36 -0.78 0.3 -0.72 0 c0.16 -0.78 0.32 -1.32 0.44 -2.34 c0.04 -0.34 0.28 -0.32 0.62 -0.28 c0.76 0.08 1.76 0.12 5.46 0.12 s5.18 -0.04 5.94 -0.12 c0.36 -0.04 0.7 -0.06 0.58 0.28 c-0.28 0.92 -0.48 1.58 -0.6 2.34 c-0.06 0.34 -0.56 0.32 -0.62 0 c-0.2 -0.94 -1.02 -1.3 -2.8 -1.3 l-0.72 0 c-0.48 0 -0.76 0.16 -0.76 0.64 l0 10.02 c0 1.08 0.94 1.38 2.28 1.54 c0.16 0.02 0.04 0.6 -0.14 0.6 l-6.44 0 z M39.580999999999996 19.54 c0.16 0 0.14 0.5 0 0.56 c-1.12 0.42 -2.78 0.28 -3.88 -1.14 l-3.12 -4 c-0.84 -1.08 -1.94 -1.28 -3.4 -1.3 l0 3.92 c0 1.4 0.92 1.64 2.26 1.8 c0.14 0.02 0.04 0.62 -0.12 0.62 l-5.78 0 c-0.16 0 -0.28 -0.6 -0.12 -0.62 c0.98 -0.14 1.68 -0.5 1.68 -1.8 l0 -9.04 c0 -1.32 -0.7 -1.7 -1.68 -1.96 c-0.16 -0.04 -0.06 -0.64 0.12 -0.62 c0.8 0.1 1.68 0.12 2.28 0.12 c1.34 0 2.62 -0.12 3.54 -0.12 c2.86 0 4.96 1.2 4.96 3.7 c0 2.38 -1.98 3.52 -3.5 3.62 l0 0.1 c0.74 0 1.24 0.32 2.08 1.38 l3.08 3.84 c0.56 0.72 1.1 0.94 1.6 0.94 z M29.800999999999995 12.8 c3 0 4.32 -0.52 4.32 -2.62 c0 -2.18 -1.44 -3.26 -3.28 -3.26 c-1.22 0 -1.66 0.48 -1.66 1.62 l0 4.26 l0.62 0 z M55.0515 19.36 c0.28 0.04 0.2 0.64 -0.04 0.64 l-4.98 0 c-0.26 0 -0.3 -0.6 -0.06 -0.64 c0.76 -0.12 1.52 -0.42 0.78 -2.16 l-0.3 -0.7 c-0.18 -0.46 -0.62 -0.48 -1.26 -0.48 l-4.16 0 c-0.6 0 -1.04 0.02 -1.22 0.48 l-0.28 0.7 c-0.74 1.78 0.02 2.02 1.02 2.16 c0.24 0.04 0.2 0.64 -0.06 0.64 l-4.22 0 c-0.26 0 -0.32 -0.6 -0.06 -0.64 c0.84 -0.12 1.32 -0.44 2.06 -2.16 l3.38 -7.7 c0.78 -1.76 1.02 -2.64 1.02 -3.4 c0 -0.12 1.42 -0.44 1.48 -0.3 l4.88 11.38 c0.74 1.74 1.22 2.06 2.02 2.18 z M49.1915 15 c0.3 0 0.64 -0.04 0.52 -0.3 l-2.56 -6.08 l-2.56 6.08 c-0.12 0.26 0.2 0.3 0.5 0.3 l4.1 0 z M59.122 20 c-0.18 0 -0.3 -0.58 -0.14 -0.6 c1.36 -0.16 2.28 -0.46 2.28 -1.54 l0 -10.02 c0 -0.48 -0.16 -0.64 -0.64 -0.64 l-0.64 0 c-2.02 0 -2.92 0.34 -3.38 1.3 c-0.18 0.36 -0.78 0.3 -0.72 0 c0.16 -0.78 0.32 -1.32 0.44 -2.34 c0.04 -0.34 0.28 -0.32 0.62 -0.28 c0.76 0.08 1.76 0.12 5.46 0.12 s5.18 -0.04 5.94 -0.12 c0.36 -0.04 0.7 -0.06 0.58 0.28 c-0.28 0.92 -0.48 1.58 -0.6 2.34 c-0.06 0.34 -0.56 0.32 -0.62 0 c-0.2 -0.94 -1.02 -1.3 -2.8 -1.3 l-0.72 0 c-0.48 0 -0.76 0.16 -0.76 0.64 l0 10.02 c0 1.08 0.94 1.38 2.28 1.54 c0.16 0.02 0.04 0.6 -0.14 0.6 l-6.44 0 z M69.7925 20.04 c-0.2 0.02 -0.28 -0.6 -0.12 -0.64 c1.18 -0.3 2.08 -0.48 2.08 -1.96 l0 -8.96 c0 -1.34 -0.82 -1.68 -1.7 -1.9 c-0.16 -0.04 -0.08 -0.64 0.12 -0.62 c1.46 0.12 3.6 0.12 5.08 0.12 c1.82 0 3.18 -0.08 4.76 -0.12 c0.46 0 0.46 0.32 0.36 0.76 l-0.5 1.9 c-0.06 0.26 -0.54 0.26 -0.62 0 c-0.28 -0.94 -0.92 -1.6 -3.46 -1.6 c-1.5 0 -1.96 0.36 -1.96 1.46 l0 3.32 c0 0.52 0.26 0.62 0.66 0.62 l0.38 0 c1.78 0 3.12 -0.12 4 -0.96 c0.18 -0.18 0.6 -0.14 0.44 0.24 l-1.18 2.52 c-0.14 0.34 -0.42 0.3 -0.64 0 c-0.48 -0.62 -1.52 -0.86 -2.78 -0.86 l-0.22 0 c-0.4 0 -0.66 0.1 -0.66 0.62 l0 3.46 c0 1.16 0.52 1.54 2.24 1.54 c3.24 0 4.28 -1.3 4.78 -2.14 c0.16 -0.26 0.64 -0.2 0.64 0.18 c0 1.1 -0.84 3 -2.06 3.02 c-0.96 -0.06 -2.24 -0.12 -3.96 -0.12 c-1.84 0 -3.84 -0.06 -5.68 0.12 z M91.60300000000001 20.32 c-4.8 0 -8.66 -2.3 -8.66 -7.02 c0 -3.88 2.66 -7.62 8.14 -7.62 c2.4 0 4.26 0.7 4.04 1.34 l-0.26 0.78 c-0.62 1.8 -1.58 -0.64 -5.14 -0.64 c-3.12 0 -4.76 1.88 -4.76 5.04 c0 4.7 3.34 6.94 6.06 6.94 c1.42 0 2.14 -0.7 2.14 -1.94 l0 -0.38 c0 -1.52 -0.62 -2.02 -2.24 -2.26 c-0.26 -0.04 -0.08 -0.72 0.36 -0.72 l4.9 0 c0.54 0 0.28 0.66 0.06 0.72 c-0.68 0.18 -1.16 0.62 -1.16 1.9 l0 0.72 c0 0.54 0.02 0.92 0.4 1.58 c-1.2 0.64 -3.38 1.56 -3.88 1.56 z M98.0535 20 c-0.16 0 -0.28 -0.6 -0.12 -0.62 c0.98 -0.14 1.68 -0.5 1.68 -1.8 l0 -9.16 c0 -1.3 -0.7 -1.66 -1.68 -1.8 c-0.16 -0.02 -0.04 -0.62 0.12 -0.62 l5.18 0 c0.16 0 0.28 0.6 0.12 0.62 c-0.86 0.12 -1.66 0.4 -1.66 1.8 l0 9.16 c0 1.4 0.8 1.68 1.66 1.8 c0.16 0.02 0.04 0.62 -0.12 0.62 l-5.18 0 z M112.844 20.32 c-3.36 0 -7.96 -1.98 -7.96 -7.08 c0 -3.5 2.16 -7.56 7.68 -7.56 c2.28 0 4.3 0.7 4.06 1.4 l-0.24 0.74 c-0.62 1.9 -1.54 -0.68 -4.96 -0.68 c-2.92 0 -4.52 1.88 -4.52 4.92 c0 4.48 3.4 6.5 6.34 6.5 c0.34 0 1.98 -0.26 3.22 -1.04 c0.16 -0.1 0.54 0.3 0.42 0.48 c-0.86 1.24 -3.48 2.32 -4.04 2.32 z"></path></g><g id="SvgjsG5226" featureKey="inlineSymbolFeature-0" transform="matrix(0.6431811379557929,0,0,0.6431811379557929,186.62250247808052,-6.94635641259963)" fill="#d72323"><path xmlns="http://www.w3.org/2000/svg" d="M75,22.2c0,0-7.7-2-15.4-5.1C52.7,14.3,47,10.8,47,10.8s-5.6,3.6-12.6,6.3c-7.6,3.1-15.3,5-15.4,5.1  c-0.6,3.4-0.9,7-0.9,10.6c0,0.8,0,1.2,0.1,2c0.4,4.3,8,2.2,10.7,1.2c0.3-0.1,0.7-0.3,1-0.4c1-0.4,2-0.8,3.1-1.3  c2.1-0.9,4.3-2,6.6-3.2c3.3-1.8,6.7-3.8,9.6-6.1c-4.3,5.8-13.5,12.7-23.8,17.1c-2.6,1.1-6.2,2.5-8.7,2.4c-3-0.1-2,0.4-1.8,0.5  c3.2,1.6,5,3.9,5.9,6c0.6,1.4,2.7,3.6,14-2.2c6.4-3.3,14.6-8,22.9-14.6c0.3-0.2,0.6-0.5,0.9-0.7c1.8-1.5,3.7-3,5.5-4.6  c-4.3,8.7-16.4,18.8-31,26.3c-4.6,2.4-5.8,2.7-7.8,3.4c-2.7,0.9-5.3,0.5-5.3,1c-0.1,0.7,3.4,1.4,7,5c3.3,3.3,11.6-0.5,15.1-2.4  C46,60,53,55.6,57.7,51.5c0.9-0.8,1.7-1.6,2.5-2.4c-3.5,8.3-11,14.3-20.9,19.9c-2.5,1.4-6.7,2.6-8.5,3.1c-0.5,0.2-1.2,0.2-1.2,0.5  c0,0.6,4,1,6.6,2.4c3.6,1.9,6.1,2.9,7,3.2c1.2,0.5,2.5,0.8,3.8,1.1c17.2-3.8,28.8-23.5,28.8-46.6C75.9,29.2,75.6,25.6,75,22.2z"></path></g><g id="SvgjsG5227" featureKey="nameRightFeature-0" transform="matrix(1.519908757647551,0,0,1.519908757647551,249.00337554249876,2.366921416467431)" fill="#d72323"><path d="M4.1505 20.04 c-0.2 0.02 -0.28 -0.6 -0.12 -0.64 c1.18 -0.3 2.08 -0.48 2.08 -1.96 l0 -8.96 c0 -1.34 -0.82 -1.68 -1.7 -1.9 c-0.16 -0.04 -0.08 -0.64 0.12 -0.62 c0.82 0.1 1.66 0.12 2.34 0.12 c1.4 0 2.8 -0.12 3.84 -0.12 c4.94 0 7.46 2.86 7.46 6.76 s-2.6 7.32 -7.48 7.32 c-0.96 0 -2.2 -0.12 -3.54 -0.12 c-1.08 0 -2.06 0.02 -3 0.12 z M10.750499999999999 19.06 c3.46 0 5.34 -1.86 5.34 -5.38 c0 -3.7 -2.12 -6.74 -5.92 -6.74 c-1.54 0 -1.98 0.46 -1.98 1.54 l0 8.96 c0 1.1 0.6 1.62 2.56 1.62 z M19.421 20.04 c-0.2 0.02 -0.28 -0.6 -0.12 -0.64 c1.18 -0.3 2.08 -0.48 2.08 -1.96 l0 -8.96 c0 -1.34 -0.82 -1.68 -1.7 -1.9 c-0.16 -0.04 -0.08 -0.64 0.12 -0.62 c1.46 0.12 3.6 0.12 5.08 0.12 c1.82 0 3.18 -0.08 4.76 -0.12 c0.46 0 0.46 0.32 0.36 0.76 l-0.5 1.9 c-0.06 0.26 -0.54 0.26 -0.62 0 c-0.28 -0.94 -0.92 -1.6 -3.46 -1.6 c-1.5 0 -1.96 0.36 -1.96 1.46 l0 3.32 c0 0.52 0.26 0.62 0.66 0.62 l0.38 0 c1.78 0 3.12 -0.12 4 -0.96 c0.18 -0.18 0.6 -0.14 0.44 0.24 l-1.18 2.52 c-0.14 0.34 -0.42 0.3 -0.64 0 c-0.48 -0.62 -1.52 -0.86 -2.78 -0.86 l-0.22 0 c-0.4 0 -0.66 0.1 -0.66 0.62 l0 3.46 c0 1.16 0.52 1.54 2.24 1.54 c3.24 0 4.28 -1.3 4.78 -2.14 c0.16 -0.26 0.64 -0.2 0.64 0.18 c0 1.1 -0.84 3 -2.06 3.02 c-0.96 -0.06 -2.24 -0.12 -3.96 -0.12 c-1.84 0 -3.84 -0.06 -5.68 0.12 z M32.1715 20.04 c-0.2 0.02 -0.28 -0.6 -0.12 -0.64 c1.18 -0.3 2.08 -0.48 2.08 -1.96 l0 -8.96 c0 -1.34 -0.82 -1.68 -1.7 -1.9 c-0.16 -0.04 -0.08 -0.64 0.12 -0.62 c1.46 0.12 3.6 0.12 5.08 0.12 c1.82 0 3.18 -0.08 4.76 -0.12 c0.46 0 0.46 0.32 0.36 0.76 l-0.5 1.9 c-0.06 0.26 -0.54 0.26 -0.62 0 c-0.28 -0.94 -0.92 -1.6 -3.46 -1.6 c-1.5 0 -1.96 0.36 -1.96 1.46 l0 3.52 c0 0.52 0.26 0.62 0.66 0.62 l0.38 0 c1.78 0 3.12 -0.12 4 -0.96 c0.18 -0.18 0.6 -0.14 0.44 0.24 l-1.18 2.52 c-0.14 0.34 -0.42 0.3 -0.64 0 c-0.48 -0.62 -1.52 -0.86 -2.78 -0.86 l-0.22 0 c-0.4 0 -0.66 0.1 -0.66 0.62 l0 3.26 c0 1.48 0.96 1.64 2.56 1.96 c0.18 0.04 0.08 0.66 -0.12 0.64 c-1.32 -0.12 -2.44 -0.12 -3.48 -0.12 s-2.04 0.02 -3 0.12 z M43.962 20.04 c-0.2 0.02 -0.28 -0.6 -0.12 -0.64 c1.18 -0.3 2.08 -0.48 2.08 -1.96 l0 -8.96 c0 -1.34 -0.82 -1.68 -1.7 -1.9 c-0.16 -0.04 -0.08 -0.64 0.12 -0.62 c1.46 0.12 3.6 0.12 5.08 0.12 c1.82 0 3.18 -0.08 4.76 -0.12 c0.46 0 0.46 0.32 0.36 0.76 l-0.5 1.9 c-0.06 0.26 -0.54 0.26 -0.62 0 c-0.28 -0.94 -0.92 -1.6 -3.46 -1.6 c-1.5 0 -1.96 0.36 -1.96 1.46 l0 3.32 c0 0.52 0.26 0.62 0.66 0.62 l0.38 0 c1.78 0 3.12 -0.12 4 -0.96 c0.18 -0.18 0.6 -0.14 0.44 0.24 l-1.18 2.52 c-0.14 0.34 -0.42 0.3 -0.64 0 c-0.48 -0.62 -1.52 -0.86 -2.78 -0.86 l-0.22 0 c-0.4 0 -0.66 0.1 -0.66 0.62 l0 3.46 c0 1.16 0.52 1.54 2.24 1.54 c3.24 0 4.28 -1.3 4.78 -2.14 c0.16 -0.26 0.64 -0.2 0.64 0.18 c0 1.1 -0.84 3 -2.06 3.02 c-0.96 -0.06 -2.24 -0.12 -3.96 -0.12 c-1.84 0 -3.84 -0.06 -5.68 0.12 z M69.9925 20.2 c-0.32 0 -0.48 -0.16 -0.7 -0.38 l-9.6 -10.36 l0 8.08 c0 1.34 0.78 1.58 1.82 1.84 c0.16 0.04 0.08 0.62 -0.12 0.62 l-4.48 0 c-0.18 0 -0.28 -0.56 -0.12 -0.62 c0.94 -0.26 1.66 -0.5 1.66 -1.84 l0 -7.92 c0 -1.28 -0.14 -2.12 -0.8 -2.86 c-0.12 -0.16 -0.3 -0.28 -0.3 -0.36 c0 -0.16 0.14 -0.4 0.36 -0.4 l1.4 0 c0.22 0 0.36 0.02 0.5 0.18 l9.42 10.28 l0 -8.02 c0 -1.4 -0.88 -1.58 -1.82 -1.82 c-0.16 -0.04 -0.08 -0.62 0.12 -0.62 l4.48 0 c0.18 0 0.28 0.58 0.12 0.62 c-0.9 0.24 -1.68 0.42 -1.68 1.82 l0 7.94 c0 1.26 0.04 2.7 0.24 3.42 c0.1 0.32 -0.26 0.4 -0.5 0.4 z M77.423 20.32 c-1.66 0 -4.06 -0.76 -3.84 -1.6 l0.18 -0.7 c0.54 -1.94 1.14 0.98 4.44 0.98 c1.74 0 2.72 -0.84 2.72 -2.1 c0 -1.04 -0.76 -1.5 -2.04 -2.26 l-2.24 -1.36 c-2.04 -1.24 -2.84 -2.12 -2.84 -3.5 c0 -2.38 2.28 -4.1 4.82 -4.1 c1.54 0 3.42 0.64 3.22 1.32 l-0.24 0.74 c-0.56 1.8 -1.08 -0.76 -3.82 -0.76 c-1.54 0 -2.32 0.8 -2.32 1.88 c0 0.88 0.54 1.4 1.88 2.22 l2.34 1.4 c2.04 1.22 2.86 2.14 2.86 3.52 c0 2.44 -2.44 4.32 -5.12 4.32 z M83.79350000000001 20.04 c-0.2 0.02 -0.28 -0.6 -0.12 -0.64 c1.18 -0.3 2.08 -0.48 2.08 -1.96 l0 -8.96 c0 -1.34 -0.82 -1.68 -1.7 -1.9 c-0.16 -0.04 -0.08 -0.64 0.12 -0.62 c1.46 0.12 3.6 0.12 5.08 0.12 c1.82 0 3.18 -0.08 4.76 -0.12 c0.46 0 0.46 0.32 0.36 0.76 l-0.5 1.9 c-0.06 0.26 -0.54 0.26 -0.62 0 c-0.28 -0.94 -0.92 -1.6 -3.46 -1.6 c-1.5 0 -1.96 0.36 -1.96 1.46 l0 3.32 c0 0.52 0.26 0.62 0.66 0.62 l0.38 0 c1.78 0 3.12 -0.12 4 -0.96 c0.18 -0.18 0.6 -0.14 0.44 0.24 l-1.18 2.52 c-0.14 0.34 -0.42 0.3 -0.64 0 c-0.48 -0.62 -1.52 -0.86 -2.78 -0.86 l-0.22 0 c-0.4 0 -0.66 0.1 -0.66 0.62 l0 3.46 c0 1.16 0.52 1.54 2.24 1.54 c3.24 0 4.28 -1.3 4.78 -2.14 c0.16 -0.26 0.64 -0.2 0.64 0.18 c0 1.1 -0.84 3 -2.06 3.02 c-0.96 -0.06 -2.24 -0.12 -3.96 -0.12 c-1.84 0 -3.84 -0.06 -5.68 0.12 z"></path></g>
			</g>
		</svg>
	